<?xml version="1.0" encoding="UTF-8" standalone="no"?><svg xmlns="http://www.w3.org/2000/svg" xmlns:xlink="http://www.w3.org/1999/xlink" data-name="Layer 1" fill="#000000" height="711" preserveAspectRatio="xMidYMid meet" version="1" viewBox="0.0 0.0 734.6 710.7" width="735" zoomAndPan="magnify"><g id="change1_1"><rect fill="#faf7fc" height="654.6" rx="50" ry="50" width="734.6" y="56.1"/></g><g id="change2_1"><path d="M0 204.6H734.6V209.2H0z" fill="#faf7fc"/></g><g id="change3_1"><rect fill="#000000" height="136" rx="17.3" ry="17.3" width="39.9" x="84.5"/></g><g id="change3_2"><rect fill="#000000" height="136" rx="17.3" ry="17.3" width="39.9" x="189.7"/></g><g id="change3_3"><rect fill="#000000" height="136" rx="17.3" ry="17.3" width="39.9" x="294.8"/></g><g id="change3_4"><rect fill="#000000" height="136" rx="17.3" ry="17.3" width="39.9" x="399.9"/></g><g id="change3_5"><rect fill="#000000" height="136" rx="17.3" ry="17.3" width="39.9" x="505.1"/></g><g id="change3_6"><rect fill="#000000" height="136" rx="17.3" ry="17.3" width="39.9" x="610.2"/></g><g id="change2_2"><rect fill="#faf7fc" height="384.3" rx="20" ry="20" width="565.6" x="84.5" y="253.8"/></g><g id="change4_1"><path d="M476,337.5c-29-29-67.4-44.9-108.4-44.9s-79.4,15.9-108.4,44.9c-29,29-44.9,67.4-44.9,108.4s15.9,79.4,44.9,108.4c29,29,67.4,44.9,108.4,44.9s79.4-15.9,108.4-44.9c29-29,44.9-67.4,44.9-108.4s-15.9-79.4-44.9-108.4ZM367.6,327.3c59.5,0,108.9,44.1,117.4,101.3h-234.7c8.4-57.2,57.8-101.3,117.4-101.3ZM367.6,564.6c-59.5,0-108.9-44.1-117.4-101.3h234.7c-8.4,57.2-57.8,101.3-117.4,101.3Z" fill="#0099ff"/></g></svg>