<?xml version="1.0" encoding="UTF-8" standalone="no"?><svg xmlns="http://www.w3.org/2000/svg" xmlns:xlink="http://www.w3.org/1999/xlink" fill="#000000" height="408.4" preserveAspectRatio="xMidYMid meet" version="1" viewBox="35.0 51.8 442.0 408.4" width="442" zoomAndPan="magnify"><g><g><g><g><g id="change1_1"><path d="M377.68,379.26v15.06c0,10.88-8.9,19.79-19.79,19.79c-5.44,0-10.39-2.23-13.97-5.81 c-3.59-3.59-5.82-8.54-5.82-13.98v-15.06c0-10.89,8.91-19.79,19.79-19.79C368.78,359.47,377.68,368.37,377.68,379.26z" fill="#0099ff"/></g><g id="change1_2"><path d="M472,347.36v78.85c0,12.94-10.58,23.52-23.52,23.52H336.43c-8.05,0-15.18-4.1-19.42-10.31 c-2.58-3.77-4.09-8.32-4.09-13.21v-21.86v-56.99c0-12.93,10.58-23.51,23.51-23.51h53.91h36.2h21.94 C461.42,323.85,472,334.43,472,347.36z M377.68,394.32v-15.06c0-10.89-8.9-19.79-19.79-19.79c-10.88,0-19.79,8.9-19.79,19.79 v15.06c0,5.44,2.23,10.39,5.82,13.98c3.58,3.58,8.53,5.81,13.97,5.81C368.78,414.11,377.68,405.2,377.68,394.32z" fill="#0099ff"/></g><g id="change2_1"><circle cx="239.2" cy="256" fill="#faf7fc" r="19.3"/></g><g id="change3_1"><path d="M219.9,256c0,10.63,8.67,19.3,19.3,19.3c10.63,0,19.3-8.67,19.3-19.3s-8.67-19.3-19.3-19.3 C228.57,236.7,219.9,245.37,219.9,256z M404.83,256c0,24.18-5.18,47.14-14.49,67.85h-53.91c-12.93,0-23.51,10.58-23.51,23.51 v56.99c-22.2,11.06-47.23,17.28-73.72,17.28c-45.74,0-87.15-18.54-117.12-48.51C92.1,343.15,73.56,301.74,73.56,256 s18.54-87.15,48.52-117.12c29.97-29.97,71.38-48.51,117.12-48.51s87.15,18.54,117.12,48.51S404.83,210.26,404.83,256z" fill="#faf7fc"/></g><g id="change4_1"><path d="M438.4,256c0,23.83-4.19,46.67-11.86,67.85h-36.2c9.31-20.71,14.49-43.67,14.49-67.85 c0-45.74-18.54-87.15-48.51-117.12S284.94,90.37,239.2,90.37s-87.15,18.54-117.12,48.51C92.1,168.85,73.56,210.26,73.56,256 s18.54,87.15,48.52,117.12c29.97,29.97,71.38,48.51,117.12,48.51c26.49,0,51.52-6.22,73.72-17.28v21.86 c0,4.89,1.51,9.44,4.09,13.21c-23.91,10.16-50.2,15.78-77.81,15.78C129.18,455.2,40,366.01,40,256S129.18,56.8,239.2,56.8 C349.21,56.8,438.4,145.99,438.4,256z" fill="#faf7fc"/></g></g><g><g id="change5_21"><path d="M239.2,460.2C126.604,460.2,35,368.597,35,256c0-112.596,91.604-204.2,204.2-204.2c112.597,0,204.2,91.604,204.2,204.2 c0,23.872-4.091,47.272-12.159,69.552c-0.939,2.597-3.811,3.94-6.403,2.999c-2.597-0.94-3.939-3.808-2.999-6.403 c7.672-21.185,11.562-43.44,11.562-66.147c0-107.083-87.118-194.2-194.2-194.2C132.118,61.8,45,148.917,45,256 c0,107.082,87.118,194.2,194.2,194.2c26.313,0,51.834-5.175,75.854-15.382c2.54-1.079,5.477,0.104,6.557,2.646 c1.08,2.541-0.104,5.477-2.646,6.557C293.701,454.757,266.865,460.2,239.2,460.2z"/></g><g id="change5_14"><path d="M239.2,426.63c-45.58,0-88.429-17.748-120.656-49.975C86.312,344.434,68.56,301.584,68.56,256 c0-45.583,17.751-88.434,49.985-120.656C150.771,103.118,193.621,85.37,239.2,85.37c45.578,0,88.428,17.748,120.655,49.974 C392.082,167.571,409.83,210.421,409.83,256c0,24.346-5.023,47.863-14.93,69.899c-1.133,2.519-4.096,3.64-6.61,2.511 c-2.519-1.133-3.643-4.092-2.511-6.61c9.323-20.738,14.051-42.877,14.051-65.8c0-42.908-16.708-83.247-47.045-113.584 C322.446,112.078,282.107,95.37,239.2,95.37c-42.909,0-83.247,16.708-113.584,47.045C95.271,172.75,78.56,213.088,78.56,256 c0,42.912,16.711,83.251,47.055,113.584c30.338,30.338,70.676,47.046,113.585,47.046c25.121,0,49.174-5.638,71.49-16.756 c2.473-1.229,5.474-0.226,6.705,2.246s0.226,5.474-2.246,6.705C291.437,420.64,265.883,426.63,239.2,426.63z"/></g><g id="change5_27"><path d="M239.2,123.42c-2.761,0-5-2.239-5-5V90.37c0-2.761,2.239-5,5-5s5,2.239,5,5v28.05 C244.2,121.181,241.961,123.42,239.2,123.42z"/></g><g id="change5_18"><path d="M307.985,141.861c-0.848,0-1.708-0.216-2.495-0.671c-2.392-1.381-3.211-4.438-1.83-6.83l14.029-24.3 c1.38-2.392,4.437-3.212,6.83-1.83c2.392,1.381,3.211,4.438,1.83,6.83l-14.029,24.3 C311.395,140.964,309.714,141.861,307.985,141.861z"/></g><g id="change5_15"><path d="M358.345,192.211c-1.729,0-3.409-0.897-4.335-2.501c-1.381-2.392-0.562-5.449,1.83-6.83l24.3-14.03 c2.392-1.382,5.45-0.562,6.83,1.83c1.381,2.392,0.562,5.449-1.83,6.83l-24.3,14.03 C360.053,191.995,359.192,192.211,358.345,192.211z"/></g><g id="change5_6"><path d="M404.83,261H376.77c-2.762,0-5-2.238-5-5c0-2.761,2.238-5,5-5h28.061c2.762,0,5,2.239,5,5 C409.83,258.762,407.592,261,404.83,261z"/></g><g id="change5_28"><path d="M239.2,426.63c-2.761,0-5-2.238-5-5v-28.05c0-2.762,2.239-5,5-5s5,2.238,5,5v28.05 C244.2,424.392,241.961,426.63,239.2,426.63z"/></g><g id="change5_26"><path d="M156.375,404.441c-0.848,0-1.708-0.216-2.495-0.671c-2.392-1.381-3.211-4.438-1.83-6.83l14.03-24.301 c1.381-2.393,4.438-3.212,6.83-1.83c2.392,1.381,3.211,4.438,1.83,6.83l-14.03,24.301 C159.784,403.545,158.103,404.441,156.375,404.441z"/></g><g id="change5_9"><path d="M95.765,343.821c-1.728,0-3.408-0.896-4.334-2.5c-1.381-2.392-0.563-5.449,1.829-6.831l24.29-14.03 c2.391-1.381,5.45-0.562,6.831,1.829c1.381,2.392,0.563,5.449-1.829,6.831l-24.29,14.03 C97.473,343.604,96.613,343.821,95.765,343.821z"/></g><g id="change5_20"><path d="M101.62,261H73.56c-2.761,0-5-2.238-5-5c0-2.761,2.239-5,5-5h28.06c2.761,0,5,2.239,5,5 C106.62,258.762,104.381,261,101.62,261z"/></g><g id="change5_24"><path d="M120.045,192.211c-0.849,0-1.708-0.216-2.496-0.671l-24.29-14.03c-2.391-1.381-3.21-4.439-1.829-6.831 c1.381-2.391,4.439-3.209,6.831-1.829l24.29,14.03c2.391,1.381,3.21,4.439,1.829,6.831 C123.453,191.314,121.773,192.211,120.045,192.211z"/></g><g id="change5_11"><path d="M170.415,141.861c-1.729,0-3.409-0.897-4.335-2.501l-14.03-24.3c-1.381-2.391-0.562-5.449,1.83-6.83 c2.392-1.38,5.449-0.561,6.83,1.83l14.03,24.3c1.381,2.391,0.562,5.449-1.83,6.83 C172.123,141.645,171.263,141.861,170.415,141.861z"/></g><g id="change5_2"><path d="M278.443,114.562c-0.428,0-0.863-0.056-1.297-0.172c-2.667-0.714-4.25-3.456-3.536-6.124l3.63-13.55 c0.715-2.667,3.452-4.251,6.124-3.536c2.667,0.714,4.25,3.456,3.536,6.124l-3.63,13.55 C282.672,113.088,280.651,114.562,278.443,114.562z"/></g><g id="change5_8"><path d="M346.4,153.8c-1.279,0-2.56-0.488-3.535-1.464c-1.953-1.953-1.953-5.119,0-7.071l9.92-9.92 c1.951-1.952,5.119-1.952,7.07,0c1.953,1.953,1.953,5.119,0,7.071l-9.92,9.92C348.96,153.312,347.68,153.8,346.4,153.8z"/></g><g id="change5_16"><path d="M385.637,221.761c-2.208,0-4.229-1.474-4.827-3.708c-0.714-2.667,0.869-5.409,3.536-6.124l13.551-3.63 c2.674-0.717,5.409,0.869,6.124,3.536c0.714,2.667-0.869,5.409-3.536,6.124l-13.551,3.63 C386.5,221.706,386.064,221.761,385.637,221.761z"/></g><g id="change5_1"><path d="M399.193,303.871c-0.428,0-0.863-0.055-1.297-0.171l-13.551-3.63c-2.667-0.715-4.25-3.456-3.536-6.124 c0.715-2.666,3.453-4.252,6.124-3.536l13.551,3.63c2.667,0.715,4.25,3.456,3.536,6.124 C403.422,302.397,401.401,303.871,399.193,303.871z"/></g><g id="change5_13"><path d="M282.067,420.991c-2.208,0-4.229-1.473-4.827-3.707l-3.63-13.55c-0.714-2.668,0.869-5.409,3.536-6.124 c2.673-0.711,5.409,0.869,6.124,3.536l3.63,13.55c0.714,2.667-0.869,5.409-3.536,6.124 C282.931,420.936,282.495,420.991,282.067,420.991z"/></g><g id="change5_7"><path d="M196.333,420.991c-0.428,0-0.863-0.056-1.297-0.171c-2.667-0.715-4.25-3.457-3.536-6.124l3.63-13.55 c0.714-2.666,3.456-4.245,6.124-3.536c2.667,0.715,4.25,3.456,3.536,6.124l-3.63,13.55 C200.562,419.518,198.541,420.991,196.333,420.991z"/></g><g id="change5_10"><path d="M122.08,378.12c-1.28,0-2.559-0.488-3.536-1.465c-1.953-1.952-1.953-5.118,0-7.07l9.92-9.92 c1.953-1.953,5.118-1.953,7.071,0c1.953,1.952,1.953,5.118,0,7.07l-9.92,9.92C124.639,377.632,123.36,378.12,122.08,378.12z"/></g><g id="change5_22"><path d="M79.207,303.871c-2.208,0-4.228-1.473-4.827-3.707c-0.715-2.667,0.868-5.409,3.536-6.124l13.55-3.63 c2.669-0.709,5.409,0.869,6.124,3.536c0.715,2.667-0.868,5.409-3.536,6.124l-13.55,3.63 C80.071,303.815,79.635,303.871,79.207,303.871z"/></g><g id="change5_31"><path d="M92.763,221.761c-0.428,0-0.863-0.056-1.297-0.172l-13.55-3.63c-2.667-0.714-4.25-3.456-3.536-6.124 c0.714-2.667,3.456-4.25,6.124-3.536l13.55,3.63c2.667,0.714,4.25,3.456,3.536,6.124 C96.991,220.288,94.971,221.761,92.763,221.761z"/></g><g id="change5_19"><path d="M132,153.8c-1.28,0-2.559-0.488-3.536-1.464l-9.92-9.92c-1.953-1.953-1.953-5.119,0-7.071 c1.953-1.952,5.118-1.952,7.071,0l9.92,9.92c1.953,1.953,1.953,5.119,0,7.071C134.559,153.312,133.28,153.8,132,153.8z"/></g><g id="change5_25"><path d="M199.957,114.562c-2.208,0-4.229-1.474-4.827-3.708l-3.63-13.55c-0.715-2.667,0.869-5.409,3.536-6.124 c2.672-0.716,5.41,0.869,6.124,3.536l3.63,13.55c0.715,2.667-0.869,5.409-3.536,6.124 C200.82,114.506,200.385,114.562,199.957,114.562z"/></g><g id="change5_23"><path d="M239.2,280.3c-13.399,0-24.3-10.9-24.3-24.3c0-13.399,10.901-24.3,24.3-24.3c13.399,0,24.3,10.901,24.3,24.3 C263.5,269.399,252.599,280.3,239.2,280.3z M239.2,241.7c-7.885,0-14.3,6.415-14.3,14.3s6.415,14.3,14.3,14.3 c7.885,0,14.3-6.415,14.3-14.3S247.085,241.7,239.2,241.7z"/></g><g id="change5_5"><path d="M239.2,241.7c-2.761,0-5-2.239-5-5v-70.28c0-2.761,2.239-5,5-5s5,2.239,5,5v70.28 C244.2,239.461,241.961,241.7,239.2,241.7z"/></g><g id="change5_29"><path d="M219.9,261h-72.98c-2.761,0-5-2.238-5-5c0-2.761,2.239-5,5-5h72.98c2.761,0,5,2.239,5,5 C224.9,258.762,222.661,261,219.9,261z"/></g><g id="change5_12"><path d="M239.2,358.26c-2.761,0-5-2.238-5-5V275.3c0-2.762,2.239-5,5-5s5,2.238,5,5v77.96 C244.2,356.021,241.961,358.26,239.2,358.26z"/></g><g id="change5_3"><path d="M448.48,454.73H336.43c-9.405,0-18.209-4.67-23.549-12.491c-3.246-4.743-4.961-10.286-4.961-16.029v-78.85 c0-15.721,12.789-28.511,28.51-28.511H448.48c15.726,0,28.52,12.79,28.52,28.511v78.85 C477,441.937,464.206,454.73,448.48,454.73z M336.43,328.85c-10.206,0-18.51,8.304-18.51,18.511v78.85 c0,3.721,1.112,7.313,3.216,10.386c0.001,0.002,0.002,0.003,0.003,0.005c3.477,5.091,9.192,8.13,15.291,8.13H448.48 c10.212,0,18.52-8.309,18.52-18.521v-78.85c0-10.207-8.308-18.511-18.52-18.511H336.43z"/></g><g id="change5_4"><path d="M357.89,419.11c-6.597,0-12.813-2.584-17.505-7.275c-4.698-4.697-7.285-10.918-7.285-17.515V379.26 c0-13.669,11.121-24.79,24.79-24.79s24.79,11.121,24.79,24.79v15.061C382.68,407.989,371.559,419.11,357.89,419.11z M357.89,364.47c-8.155,0-14.79,6.635-14.79,14.79v15.061c0,3.926,1.547,7.635,4.355,10.444 c2.803,2.802,6.509,4.346,10.435,4.346c8.155,0,14.79-6.635,14.79-14.79V379.26C372.68,371.104,366.045,364.47,357.89,364.47z"/></g><g id="change5_17"><path d="M421.08,419.11c-2.762,0-5-2.238-5-5V359.47c0-2.762,2.238-5,5-5s5,2.238,5,5v54.641 C426.08,416.872,423.842,419.11,421.08,419.11z"/></g><g id="change5_30"><path d="M447.83,364.47h-53.49c-2.762,0-5-2.238-5-5s2.238-5,5-5h53.49c2.762,0,5,2.238,5,5S450.592,364.47,447.83,364.47z"/></g></g></g></g></g></svg>