<?xml version="1.0" encoding="UTF-8" standalone="no"?><svg xmlns="http://www.w3.org/2000/svg" xmlns:xlink="http://www.w3.org/1999/xlink" fill="#000000" height="58.8" preserveAspectRatio="xMidYMid meet" version="1" viewBox="7.0 2.0 48.7 58.8" width="48.7" zoomAndPan="magnify"><g id="change1_1"><path d="M55.497,43.19C54.949,41.8,53.445,41.03,52,41.4l-14.926,6.147c0.313-0.484,0.436-1.089,0.286-1.694 c-0.263-1.058-1.272-1.751-2.35-1.616L20.958,48l-5.977-1v11h7.97l6.346,2.39c1.036,0.39,2.192,0.33,3.178-0.17L54.062,47 c1.046-0.52,1.654-1.58,1.654-2.69C55.716,43.94,55.646,43.56,55.497,43.19z" fill="#faf7fc"/></g><g id="change2_1"><path d="M32.475,60.22L54.062,47c1.046-0.52,1.654-1.58,1.654-2.69c0-0.101-0.019-0.204-0.029-0.306 c-0.001-0.001-0.001-0.003-0.002-0.004c-0.279,0.569-0.732,1.055-1.338,1.356l-21.588,13.22c-0.986,0.5-2.142,0.56-3.178,0.17 l-6.346-2.39h-8.254V58h7.97l6.346,2.39C30.333,60.78,31.488,60.72,32.475,60.22z" fill="#000000"/></g><g id="change3_1"><path d="M19 14H45V32H19z" fill="#0099ff"/></g><g id="change3_2"><path d="M9 45H15V60H9z" fill="#0099ff"/></g><g id="change4_1"><path d="M32,22c-0.551,0-1-0.448-1-1s0.449-1,1-1s1,0.448,1,1h2c0-1.302-0.839-2.402-2-2.816V17h-2v1.184 c-1.161,0.414-2,1.514-2,2.816c0,1.654,1.346,3,3,3c0.551,0,1,0.448,1,1s-0.449,1-1,1s-1-0.448-1-1h-2c0,1.302,0.839,2.402,2,2.816 V29h2v-1.184c1.161-0.414,2-1.514,2-2.816C35,23.346,33.654,22,32,22z" fill="#ffffff"/></g><g id="change5_1"><path d="M32,2C19.318,2,9,12.317,9,25c0,2.637,0.443,5.198,1.307,7.643L7,33.8l6.667,4.2L15,31l-2.806,0.982 C11.405,29.749,11,27.41,11,25c0-11.579,9.42-21,21-21s21,9.421,21,21c0,4.501-1.403,8.792-4.056,12.408l1.612,1.184 C53.463,34.629,55,29.93,55,25C55,12.317,44.682,2,32,2z" fill="#000000"/></g><g id="change2_2"><path d="M28.385 49.993L28.731 51 37.199 47.472z" fill="#000000"/></g></svg>